<svg width="34" height="34" viewBox="0 0 34 34" fill="none" xmlns="http://www.w3.org/2000/svg">
<path fill-rule="evenodd" clip-rule="evenodd" d="M17.082 1.08348C25.9186 1.08348 33.082 8.24693 33.082 17.0835C33.082 25.92 25.9186 33.0835 17.082 33.0835C8.24547 33.0835 1.08203 25.92 1.08203 17.0835C1.08203 8.24693 8.24547 1.08348 17.082 1.08348ZM17.0827 3.9925C9.85277 3.9925 3.99177 9.8535 3.99177 17.0834C3.99177 24.3133 9.85277 30.1743 17.0827 30.1743C24.3126 30.1743 30.1736 24.3133 30.1736 17.0834C30.1736 9.8535 24.3126 3.9925 17.0827 3.9925ZM24.3548 15.6291H14.7754L18.1105 12.294L16.0535 10.2369L9.20681 17.0836L16.0535 23.9303L18.1105 21.8733L14.7754 18.5382H24.3548L24.3548 15.6291Z" fill="#242424"/>
<path d="M14.7754 15.6291L14.4219 15.2755L13.5683 16.1291H14.7754V15.6291ZM24.3548 15.6291H24.8548V15.1291H24.3548V15.6291ZM18.1105 12.294L18.4641 12.6475L18.8177 12.294L18.4641 11.9404L18.1105 12.294ZM16.0535 10.2369L16.4071 9.88337L16.0535 9.52982L15.7 9.88337L16.0535 10.2369ZM9.20681 17.0836L8.85326 16.7301L8.49971 17.0836L8.85326 17.4372L9.20681 17.0836ZM16.0535 23.9303L15.7 24.2839L16.0535 24.6374L16.4071 24.2839L16.0535 23.9303ZM18.1105 21.8733L18.4641 22.2268L18.8177 21.8733L18.4641 21.5197L18.1105 21.8733ZM14.7754 18.5382V18.0382H13.5683L14.4219 18.8917L14.7754 18.5382ZM24.3548 18.5382V19.0382H24.8548V18.5382H24.3548ZM33.582 17.0835C33.582 7.97079 26.1947 0.583485 17.082 0.583485V1.58348C25.6424 1.58348 32.582 8.52307 32.582 17.0835H33.582ZM17.082 33.5835C26.1947 33.5835 33.582 26.1962 33.582 17.0835H32.582C32.582 25.6439 25.6424 32.5835 17.082 32.5835V33.5835ZM0.582031 17.0835C0.582031 26.1962 7.96933 33.5835 17.082 33.5835V32.5835C8.52162 32.5835 1.58203 25.6439 1.58203 17.0835H0.582031ZM17.082 0.583485C7.96933 0.583485 0.582031 7.97079 0.582031 17.0835H1.58203C1.58203 8.52307 8.52162 1.58348 17.082 1.58348V0.583485ZM4.49177 17.0834C4.49177 10.1296 10.1289 4.4925 17.0827 4.4925V3.4925C9.57663 3.4925 3.49177 9.57736 3.49177 17.0834H4.49177ZM17.0827 29.6743C10.1289 29.6743 4.49177 24.0372 4.49177 17.0834H3.49177C3.49177 24.5895 9.57663 30.6743 17.0827 30.6743V29.6743ZM29.6736 17.0834C29.6736 24.0372 24.0364 29.6743 17.0827 29.6743V30.6743C24.5887 30.6743 30.6736 24.5895 30.6736 17.0834H29.6736ZM17.0827 4.4925C24.0364 4.4925 29.6736 10.1296 29.6736 17.0834H30.6736C30.6736 9.57736 24.5887 3.4925 17.0827 3.4925V4.4925ZM14.7754 16.1291H24.3548V15.1291H14.7754V16.1291ZM17.757 11.9404L14.4219 15.2755L15.129 15.9826L18.4641 12.6475L17.757 11.9404ZM15.7 10.5905L17.757 12.6475L18.4641 11.9404L16.4071 9.88337L15.7 10.5905ZM9.56037 17.4372L16.4071 10.5905L15.7 9.88337L8.85326 16.7301L9.56037 17.4372ZM16.4071 23.5768L9.56037 16.7301L8.85326 17.4372L15.7 24.2839L16.4071 23.5768ZM17.757 21.5197L15.7 23.5768L16.4071 24.2839L18.4641 22.2268L17.757 21.5197ZM14.4219 18.8917L17.757 22.2268L18.4641 21.5197L15.129 18.1846L14.4219 18.8917ZM24.3548 18.0382H14.7754V19.0382H24.3548V18.0382ZM23.8548 15.6291L23.8548 18.5382H24.8548L24.8548 15.6291H23.8548Z" fill="#242424"/>
</svg>
