<svg width="64" height="44" viewBox="0 0 64 44" fill="none" xmlns="http://www.w3.org/2000/svg">
<circle cx="32" cy="22" r="22" fill="#FFF600"/>
<path d="M5.61031 22.8359H3.74313V27H1.39938V15.625H5.62594C6.96969 15.625 8.00615 15.9245 8.73531 16.5234C9.46448 17.1224 9.82906 17.9688 9.82906 19.0625C9.82906 19.8385 9.65979 20.487 9.32125 21.0078C8.98792 21.5234 8.48011 21.9349 7.79781 22.2422L10.2588 26.8906V27H7.74313L5.61031 22.8359ZM3.74313 20.9375H5.63375C6.22229 20.9375 6.67802 20.7891 7.00094 20.4922C7.32386 20.1901 7.48531 19.776 7.48531 19.25C7.48531 18.7135 7.33167 18.2917 7.02438 17.9844C6.72229 17.6771 6.25615 17.5234 5.62594 17.5234H3.74313V20.9375ZM17.824 24.6562H13.7146L12.9334 27H10.4412L14.6756 15.625H16.8474L21.1053 27H18.6131L17.824 24.6562ZM14.3474 22.7578H17.1912L15.7615 18.5L14.3474 22.7578ZM31.2096 27H28.8658V22.125H24.2955V27H21.9518V15.625H24.2955V20.2344H28.8658V15.625H31.2096V27ZM39.892 22.0703H35.392V25.1172H40.6732V27H33.0482V15.625H40.6576V17.5234H35.392V20.2344H39.892V22.0703ZM48.676 22.0703H44.176V25.1172H49.4573V27H41.8323V15.625H49.4416V17.5234H44.176V20.2344H48.676V22.0703ZM53.6787 15.625L56.6006 23.875L59.5069 15.625H62.585V27H60.2334V23.8906L60.4678 18.5234L57.3975 27H55.7881L52.7256 18.5312L52.96 23.8906V27H50.6162V15.625H53.6787Z" fill="#111111"/>
</svg>
